<svg xmlns="http://www.w3.org/2000/svg" width="32" height="32" viewBox="0 0 45.773 45.773"><g fill="#95e1d3"><path d="M5.081 13.737a18.848 18.848 0 0 1 11.32-7.988 1.162 1.162 0 0 0 .711-1.744A8.514 8.514 0 0 0 9.888 0a8.534 8.534 0 0 0-8.534 8.532c0 2 .691 3.837 1.845 5.29a1.164 1.164 0 0 0 1.882-.085zM35.886 0a8.51 8.51 0 0 0-7.204 3.974c-.2.316-.235.711-.094 1.059.142.349.442.605.809.691a18.835 18.835 0 0 1 11.369 7.928 1.16 1.16 0 0 0 1.888.067 8.473 8.473 0 0 0 1.766-5.186C44.417 3.82 40.598 0 35.886 0zm5.866 26.132c0-3.294-.857-6.39-2.351-9.084a18.835 18.835 0 0 0-13.595-9.475 18.76 18.76 0 0 0-2.853-.24c-1.016 0-2.006.104-2.979.26a18.84 18.84 0 0 0-13.516 9.533 18.678 18.678 0 0 0-2.304 9.006c0 5.586 2.463 10.597 6.343 14.041l-1.584 2.231a2.134 2.134 0 0 0 3.479 2.472l1.583-2.23a18.683 18.683 0 0 0 8.978 2.287c3.249 0 6.308-.83 8.977-2.287l1.583 2.23a2.129 2.129 0 0 0 2.973.503 2.134 2.134 0 0 0 .506-2.975l-1.584-2.231c3.88-3.444 6.344-8.455 6.344-14.041zM22.954 39.674c-7.468 0-13.542-6.074-13.542-13.542 0-2.328.591-4.519 1.629-6.435a13.566 13.566 0 0 1 9.826-6.93 13.54 13.54 0 0 1 2.087-.178c.67 0 1.325.065 1.97.16a13.566 13.566 0 0 1 9.924 6.913 13.455 13.455 0 0 1 1.647 6.469c0 7.469-6.074 13.543-13.541 13.543z"/><path d="M30.54 29.3l-5.166-3.19a2.468 2.468 0 0 0-.893-1.494l.236-6.482a1.502 1.502 0 0 0-1.444-1.554 1.497 1.497 0 0 0-1.554 1.444l-.237 6.489a2.493 2.493 0 0 0-1.063 2.041 2.499 2.499 0 0 0 2.5 2.499c.393 0 .76-.099 1.09-.26l4.955 3.062A1.5 1.5 0 0 0 30.54 29.3z"/></g></svg>