<svg xmlns="http://www.w3.org/2000/svg" viewBox="0 0 61.242 61.242" width="32" height="32"><path d="M58.636 49.947H9.389l11.102-14.925a1.156 1.156 0 0 1 1.484-.324l4.325 2.368a4.613 4.613 0 0 0 6.075-1.523l10.804-16.552a.77.77 0 0 1 1.046-.238l.881.535a1.193 1.193 0 0 0 1.805-.91l.993-10.706a1.193 1.193 0 0 0-1.832-1.112l-9.039 5.823a1.191 1.191 0 0 0 .027 2.021l.713.433a.774.774 0 0 1 .247 1.081l-9.382 14.37a1.157 1.157 0 0 1-1.524.383l-4.202-2.301a4.611 4.611 0 0 0-5.913 1.292L5.212 45.511V8.687a2.607 2.607 0 0 0-5.212 0v43.869a2.605 2.605 0 0 0 2.606 2.604h56.03a2.607 2.607 0 0 0 0-5.213z" fill="#95e1d3"/></svg>