<svg xmlns="http://www.w3.org/2000/svg" viewBox="0 0 90.001 90.001" width="32" height="32"><path d="M34.002 56.353l-20.004-8.002v6.77l20.004 8.002v-6.77zm0-20.77l-20.004-8.001v6.77l20.004 8.001v-6.77zM87.803.86a5 5 0 0 0-4.66-.502L45 15.616 6.855.358A5 5 0 0 0 0 5.001v64a5.001 5.001 0 0 0 3.141 4.643l39.916 15.965s.818.264.973.295c.32.062.644.097.97.097.324 0 .648-.035.971-.098.152-.031.975-.297.975-.297l39.912-15.963A4.998 4.998 0 0 0 90 69.001v-64c0-1.66-.824-3.211-2.197-4.141zM40 79.771L8 66.972v-56.04l32 12.802v56.037zm42-12.799L50 79.771V23.733l32-12.802v56.041zm-5.998-18.621l-20.004 8.002v6.77l20.004-8.002v-6.77zm0-20.769l-20.004 8.001v6.77l20.004-8.001v-6.77z" fill="#95e1d3"/></svg>