<svg xmlns="http://www.w3.org/2000/svg" viewBox="0 0 360 360" width="32" height="32"><g fill="#95e1d3"><path d="M230.77 291.289a2.504 2.504 0 0 0-1.734-.699h-98.071c-.646 0-1.269.251-1.734.699l-32.938 31.735a2.504 2.504 0 0 0-.766 1.801v6.929a2.5 2.5 0 0 0 2.5 2.5h163.947a2.5 2.5 0 0 0 2.5-2.5v-6.929a2.5 2.5 0 0 0-.766-1.801l-32.938-31.735zM352.86 25.746H7.142A7.143 7.143 0 0 0 0 32.886v244.958a7.144 7.144 0 0 0 7.142 7.145H352.86a7.142 7.142 0 0 0 7.14-7.145V32.886a7.141 7.141 0 0 0-7.14-7.14zM180 271.775a7.855 7.855 0 0 1-7.852-7.856 7.854 7.854 0 1 1 15.707 0 7.855 7.855 0 0 1-7.855 7.856zm151.266-31.436H28.737V59.68h302.528v180.659z"/><path d="M160.044 198.379a2.044 2.044 0 0 0 2.892 0l87.602-87.601a2.043 2.043 0 0 0 0-2.892l-18.184-18.184c-.769-.769-2.126-.768-2.893 0l-67.972 67.973-30.952-30.953a2.045 2.045 0 0 0-2.893 0l-18.184 18.182a2.043 2.043 0 0 0 0 2.892l50.584 50.583z"/></g></svg>