<svg xmlns="http://www.w3.org/2000/svg" width="512" height="512" viewBox="0 0 45.008 45.009"><path d="M43.462 35.997l-11.401-11.37a16.874 16.874 0 0 0 1.845-7.676c0-4.528-1.765-8.785-4.966-11.986A16.84 16.84 0 0 0 16.953 0 16.84 16.84 0 0 0 4.966 4.965 16.846 16.846 0 0 0 0 16.952c0 4.528 1.764 8.785 4.966 11.986a16.839 16.839 0 0 0 11.986 4.965c2.714 0 5.325-.646 7.675-1.842l11.371 11.402a5.267 5.267 0 0 0 3.732 1.546 5.278 5.278 0 0 0 3.732-9.012zM9.444 24.459c-2.005-2.006-3.109-4.671-3.109-7.507s1.104-5.502 3.11-7.508c2.005-2.005 4.671-3.11 7.507-3.11s5.502 1.104 7.508 3.11c2.005 2.005 3.11 4.671 3.11 7.507s-1.105 5.502-3.11 7.508a10.552 10.552 0 0 1-7.508 3.109 10.55 10.55 0 0 1-7.508-3.109z" fill="#FDFAFA"/></svg>