<svg xmlns="http://www.w3.org/2000/svg" viewBox="0 0 490 490" width="32" height="32"><g fill="#95e1d3"><path d="M106.1 86.3c-11.4 0-20.8 9.4-20.8 20.8v275.7c0 11.4 9.4 20.8 20.8 20.8h276.7c11.4 0 19.8-8.3 20.8-19.8V107.2c0-11.4-9.4-20.8-20.8-20.8H106.1v-.1zM362 363.1H126.9V128H362v235.1z"/><path d="M339.2 41.6h106.1v107.2c0 11.4 9.4 20.8 20.8 20.8s20.8-9.4 20.8-21.8v-127c0-11.4-9.4-20.8-20.8-20.8H339.2c-11.4 0-20.8 9.4-20.8 20.8s9.3 20.8 20.8 20.8zm-316.3 128c11.4 0 19.8-9.4 19.8-19.8V42.7h107.2c11.4 0 20.8-9.4 20.8-20.8S161.3 1 149.8 1H22.9C11.5 1 2.1 10.4 2.1 21.8v126.9c0 11.5 9.3 20.9 20.8 20.9zm444.2 151.9c-11.4 0-20.8 9.4-20.8 20.8v106.1H339.2c-11.4 0-20.8 9.4-20.8 20.8s9.4 20.8 20.8 20.8h126.9c11.4 0 20.8-9.4 21.8-20.8V342.3c0-11.5-9.3-20.8-20.8-20.8zM150.8 449.4H43.7V342.3c0-11.4-9.4-20.8-20.8-20.8s-20.8 9.4-20.8 20.8v126.9c0 11.4 9.4 20.8 20.8 20.8h126.9c11.4 0 20.8-9.4 21.8-19.8.1-11.4-9.3-20.8-20.8-20.8z"/></g></svg>