<?xml version="1.0" encoding="iso-8859-1"?>
<!-- Generator: Adobe Illustrator 18.0.0, SVG Export Plug-In . SVG Version: 6.00 Build 0)  -->
<!DOCTYPE svg PUBLIC "-//W3C//DTD SVG 1.1//EN" "http://www.w3.org/Graphics/SVG/1.1/DTD/svg11.dtd">
<svg xmlns="http://www.w3.org/2000/svg" xmlns:xlink="http://www.w3.org/1999/xlink" version="1.1" id="Capa_1" x="0px" y="0px" viewBox="0 0 360 360" style="enable-background:new 0 0 360 360;" xml:space="preserve" width="32px" height="32px">
<g>
	<path d="M230.77,291.289c-0.466-0.448-1.088-0.699-1.734-0.699h-98.071c-0.646,0-1.269,0.251-1.734,0.699l-32.938,31.735   c-0.489,0.472-0.766,1.122-0.766,1.801v6.929c0,1.381,1.119,2.5,2.5,2.5h163.947c1.381,0,2.5-1.119,2.5-2.5v-6.929   c0-0.679-0.276-1.329-0.766-1.801L230.77,291.289z" fill="#95e1d3"/>
	<path d="M352.86,25.746H7.142C3.199,25.746,0,28.944,0,32.886v244.958c0,3.947,3.199,7.145,7.142,7.145H352.86   c3.942,0,7.14-3.197,7.14-7.145V32.886C360,28.944,356.803,25.746,352.86,25.746z M180,271.775c-4.336,0-7.852-3.518-7.852-7.856   c0-4.34,3.517-7.856,7.852-7.856c4.339,0,7.855,3.516,7.855,7.856C187.855,268.258,184.339,271.775,180,271.775z M331.266,240.339   H28.737V59.68h302.528V240.339z" fill="#95e1d3"/>
	<path d="M160.044,198.379c0.384,0.384,0.904,0.599,1.446,0.599c0.542,0,1.063-0.215,1.446-0.599l87.602-87.601   c0.384-0.384,0.599-0.903,0.599-1.446c0-0.542-0.215-1.063-0.599-1.446l-18.184-18.184c-0.769-0.769-2.126-0.768-2.893,0   l-67.972,67.973l-30.952-30.953c-0.799-0.799-2.094-0.799-2.893,0l-18.184,18.182c-0.384,0.384-0.599,0.903-0.599,1.446   c0,0.542,0.215,1.063,0.599,1.446L160.044,198.379z" fill="#95e1d3"/>
</g>
<g>
</g>
<g>
</g>
<g>
</g>
<g>
</g>
<g>
</g>
<g>
</g>
<g>
</g>
<g>
</g>
<g>
</g>
<g>
</g>
<g>
</g>
<g>
</g>
<g>
</g>
<g>
</g>
<g>
</g>
</svg>
